<svg width="122" height="29" viewBox="0 0 122 29" fill="none" xmlns="http://www.w3.org/2000/svg">
<path d="M33.596 4.2H37.586C38.622 4.2 39.5367 4.41 40.33 4.83C41.1233 5.24067 41.7393 5.81933 42.178 6.566C42.6167 7.30333 42.836 8.148 42.836 9.1C42.836 10.052 42.6167 10.9013 42.178 11.648C41.7393 12.3853 41.1233 12.964 40.33 13.384C39.5367 13.7947 38.622 14 37.586 14H33.596V4.2ZM37.53 13.104C38.3887 13.104 39.14 12.936 39.784 12.6C40.428 12.2547 40.9273 11.7833 41.282 11.186C41.6367 10.5793 41.814 9.884 41.814 9.1C41.814 8.316 41.6367 7.62533 41.282 7.028C40.9273 6.42133 40.428 5.95 39.784 5.614C39.14 5.26867 38.3887 5.096 37.53 5.096H34.632V13.104H37.53ZM45.9044 8.078C46.1377 7.58333 46.4831 7.21 46.9404 6.958C47.4071 6.706 47.9811 6.58 48.6624 6.58V7.546L48.4244 7.532C47.6497 7.532 47.0431 7.77 46.6044 8.246C46.1657 8.722 45.9464 9.38933 45.9464 10.248V14H44.9524V6.636H45.9044V8.078ZM50.4622 6.636H51.4562V14H50.4622V6.636ZM50.9662 5.026C50.7608 5.026 50.5882 4.956 50.4482 4.816C50.3082 4.676 50.2382 4.508 50.2382 4.312C50.2382 4.12533 50.3082 3.962 50.4482 3.822C50.5882 3.682 50.7608 3.612 50.9662 3.612C51.1715 3.612 51.3442 3.682 51.4842 3.822C51.6242 3.95267 51.6942 4.11133 51.6942 4.298C51.6942 4.50333 51.6242 4.676 51.4842 4.816C51.3442 4.956 51.1715 5.026 50.9662 5.026ZM60.4099 6.636L57.1339 14H56.1119L52.8499 6.636H53.8859L56.6439 12.908L59.4299 6.636H60.4099ZM64.7548 13.188C65.2121 13.188 65.6321 13.1087 66.0148 12.95C66.4068 12.782 66.7381 12.5393 67.0088 12.222L67.5688 12.866C67.2421 13.258 66.8361 13.5567 66.3508 13.762C65.8654 13.9673 65.3288 14.07 64.7408 14.07C63.9848 14.07 63.3128 13.9113 62.7248 13.594C62.1368 13.2673 61.6794 12.8193 61.3528 12.25C61.0261 11.6807 60.8628 11.0367 60.8628 10.318C60.8628 9.59933 61.0168 8.95533 61.3248 8.386C61.6421 7.81667 62.0761 7.37333 62.6268 7.056C63.1774 6.73867 63.8028 6.58 64.5028 6.58C65.1561 6.58 65.7441 6.72933 66.2668 7.028C66.7988 7.32667 67.2188 7.742 67.5268 8.274C67.8441 8.806 68.0121 9.41267 68.0308 10.094L61.9828 11.27C62.1694 11.8673 62.5054 12.3387 62.9908 12.684C63.4854 13.02 64.0734 13.188 64.7548 13.188ZM64.5028 7.434C63.9894 7.434 63.5274 7.55533 63.1168 7.798C62.7154 8.03133 62.3981 8.36267 62.1648 8.792C61.9408 9.212 61.8288 9.69733 61.8288 10.248C61.8288 10.388 61.8334 10.4907 61.8428 10.556L67.0368 9.548C66.9248 8.932 66.6401 8.428 66.1828 8.036C65.7254 7.63467 65.1654 7.434 64.5028 7.434ZM77.264 12.88C76.8626 13.2627 76.326 13.5613 75.654 13.776C74.9913 13.9813 74.254 14.084 73.442 14.084C72.5833 14.084 71.8506 13.9673 71.244 13.734C70.6466 13.5007 70.194 13.1787 69.886 12.768C69.5873 12.3573 69.438 11.886 69.438 11.354C69.438 10.766 69.6106 10.2667 69.956 9.856C70.3106 9.44533 70.7726 9.16067 71.342 9.002C70.8753 8.82467 70.5113 8.54467 70.25 8.162C69.9886 7.77 69.858 7.31267 69.858 6.79C69.858 6.29533 69.998 5.84733 70.278 5.446C70.5673 5.03533 70.9966 4.71333 71.566 4.48C72.1446 4.23733 72.84 4.116 73.652 4.116C74.2493 4.116 74.828 4.186 75.388 4.326C75.9573 4.45667 76.4426 4.648 76.844 4.9L76.522 5.726C75.6633 5.24067 74.7206 4.998 73.694 4.998C72.7886 4.998 72.0933 5.17067 71.608 5.516C71.132 5.86133 70.894 6.30933 70.894 6.86C70.894 7.41067 71.0853 7.83533 71.468 8.134C71.86 8.43267 72.4106 8.582 73.12 8.582H75.556V9.478H73.078C72.2753 9.478 71.6406 9.632 71.174 9.94C70.7073 10.2387 70.474 10.6867 70.474 11.284C70.474 11.872 70.726 12.3387 71.23 12.684C71.7433 13.0293 72.4946 13.202 73.484 13.202C74.1746 13.202 74.8186 13.104 75.416 12.908C76.0133 12.712 76.4986 12.4413 76.872 12.096L77.264 12.88ZM83.4256 14L81.0876 10.92L78.7356 14H77.6156L80.5276 10.22L77.7556 6.636H78.8756L81.0876 9.52L83.2996 6.636H84.3916L81.6196 10.22L84.5596 14H83.4256ZM89.8401 13.552C89.6535 13.72 89.4248 13.8507 89.1541 13.944C88.8835 14.028 88.5988 14.07 88.3001 14.07C87.6095 14.07 87.0775 13.8833 86.7041 13.51C86.3308 13.1367 86.1441 12.6093 86.1441 11.928V5.026H87.1381V6.636H89.3641V7.476H87.1381V11.872C87.1381 12.3107 87.2455 12.6467 87.4601 12.88C87.6748 13.104 87.9875 13.216 88.3981 13.216C88.8461 13.216 89.2101 13.09 89.4901 12.838L89.8401 13.552ZM92.5939 8.078C92.8272 7.58333 93.1725 7.21 93.6299 6.958C94.0965 6.706 94.6705 6.58 95.3519 6.58V7.546L95.1139 7.532C94.3392 7.532 93.7325 7.77 93.2939 8.246C92.8552 8.722 92.6359 9.38933 92.6359 10.248V14H91.6419V6.636H92.5939V8.078ZM97.1516 6.636H98.1456V14H97.1516V6.636ZM97.6556 5.026C97.4503 5.026 97.2776 4.956 97.1376 4.816C96.9976 4.676 96.9276 4.508 96.9276 4.312C96.9276 4.12533 96.9976 3.962 97.1376 3.822C97.2776 3.682 97.4503 3.612 97.6556 3.612C97.861 3.612 98.0336 3.682 98.1736 3.822C98.3136 3.95267 98.3836 4.11133 98.3836 4.298C98.3836 4.50333 98.3136 4.676 98.1736 4.816C98.0336 4.956 97.861 5.026 97.6556 5.026ZM110.095 6.58C111.019 6.58 111.743 6.846 112.265 7.378C112.797 7.91 113.063 8.694 113.063 9.73V14H112.069V9.828C112.069 9.06267 111.883 8.47933 111.509 8.078C111.145 7.67667 110.627 7.476 109.955 7.476C109.19 7.476 108.588 7.714 108.149 8.19C107.711 8.65667 107.491 9.30533 107.491 10.136V14H106.497V9.828C106.497 9.06267 106.311 8.47933 105.937 8.078C105.573 7.67667 105.051 7.476 104.369 7.476C103.613 7.476 103.011 7.714 102.563 8.19C102.125 8.65667 101.905 9.30533 101.905 10.136V14H100.911V6.636H101.863V7.98C102.125 7.532 102.489 7.18667 102.955 6.944C103.422 6.70133 103.959 6.58 104.565 6.58C105.181 6.58 105.713 6.71067 106.161 6.972C106.619 7.23333 106.959 7.62067 107.183 8.134C107.454 7.64867 107.841 7.27067 108.345 7C108.859 6.72 109.442 6.58 110.095 6.58Z" fill="white"/>
<path d="M36.24 27.06C35.5467 27.06 34.92 26.9067 34.36 26.6C33.8067 26.2933 33.37 25.87 33.05 25.33C32.7367 24.7833 32.58 24.1733 32.58 23.5C32.58 22.8267 32.7367 22.22 33.05 21.68C33.37 21.1333 33.81 20.7067 34.37 20.4C34.93 20.0933 35.5567 19.94 36.25 19.94C36.77 19.94 37.25 20.0267 37.69 20.2C38.13 20.3733 38.5033 20.6267 38.81 20.96L38.34 21.43C37.7933 20.8767 37.1033 20.6 36.27 20.6C35.7167 20.6 35.2133 20.7267 34.76 20.98C34.3067 21.2333 33.95 21.58 33.69 22.02C33.4367 22.46 33.31 22.9533 33.31 23.5C33.31 24.0467 33.4367 24.54 33.69 24.98C33.95 25.42 34.3067 25.7667 34.76 26.02C35.2133 26.2733 35.7167 26.4 36.27 26.4C37.11 26.4 37.8 26.12 38.34 25.56L38.81 26.03C38.5033 26.3633 38.1267 26.62 37.68 26.8C37.24 26.9733 36.76 27.06 36.24 27.06ZM42.1638 26.42C42.4905 26.42 42.7905 26.3633 43.0638 26.25C43.3438 26.13 43.5805 25.9567 43.7738 25.73L44.1738 26.19C43.9405 26.47 43.6505 26.6833 43.3038 26.83C42.9572 26.9767 42.5738 27.05 42.1538 27.05C41.6138 27.05 41.1338 26.9367 40.7138 26.71C40.2938 26.4767 39.9672 26.1567 39.7338 25.75C39.5005 25.3433 39.3838 24.8833 39.3838 24.37C39.3838 23.8567 39.4938 23.3967 39.7138 22.99C39.9405 22.5833 40.2505 22.2667 40.6438 22.04C41.0372 21.8133 41.4838 21.7 41.9838 21.7C42.4505 21.7 42.8705 21.8067 43.2438 22.02C43.6238 22.2333 43.9238 22.53 44.1438 22.91C44.3705 23.29 44.4905 23.7233 44.5038 24.21L40.1838 25.05C40.3172 25.4767 40.5572 25.8133 40.9038 26.06C41.2572 26.3 41.6772 26.42 42.1638 26.42ZM41.9838 22.31C41.6172 22.31 41.2872 22.3967 40.9938 22.57C40.7072 22.7367 40.4805 22.9733 40.3138 23.28C40.1538 23.58 40.0738 23.9267 40.0738 24.32C40.0738 24.42 40.0772 24.4933 40.0838 24.54L43.7938 23.82C43.7138 23.38 43.5105 23.02 43.1838 22.74C42.8572 22.4533 42.4572 22.31 41.9838 22.31ZM48.389 21.7C48.9023 21.7 49.359 21.8133 49.759 22.04C50.159 22.2667 50.469 22.5833 50.689 22.99C50.9157 23.3967 51.029 23.86 51.029 24.38C51.029 24.9 50.919 25.3633 50.699 25.77C50.479 26.17 50.1723 26.4833 49.779 26.71C49.3923 26.9367 48.949 27.05 48.449 27.05C48.009 27.05 47.6157 26.9633 47.269 26.79C46.929 26.61 46.6523 26.3533 46.439 26.02V28.94H45.729V24.39C45.729 23.8633 45.839 23.3967 46.059 22.99C46.2857 22.5833 46.599 22.2667 46.999 22.04C47.4057 21.8133 47.869 21.7 48.389 21.7ZM48.369 26.43C48.7423 26.43 49.079 26.3433 49.379 26.17C49.679 25.9967 49.9123 25.7533 50.079 25.44C50.2457 25.1267 50.329 24.7733 50.329 24.38C50.329 23.9867 50.2457 23.6333 50.079 23.32C49.9123 23.0067 49.679 22.7633 49.379 22.59C49.079 22.41 48.7423 22.32 48.369 22.32C47.9957 22.32 47.659 22.4067 47.359 22.58C47.0657 22.7533 46.8357 22.9967 46.669 23.31C46.509 23.6167 46.429 23.97 46.429 24.37C46.429 24.77 46.509 25.1267 46.669 25.44C46.8357 25.7533 47.0657 25.9967 47.359 26.17C47.659 26.3433 47.9957 26.43 48.369 26.43ZM55.9108 24.28C56.6241 24.4467 56.9808 24.8767 56.9808 25.57C56.9808 26.03 56.8108 26.3833 56.4708 26.63C56.1308 26.8767 55.6241 27 54.9508 27H52.5608V21.74H54.8808C55.4808 21.74 55.9508 21.8567 56.2908 22.09C56.6308 22.3233 56.8008 22.6567 56.8008 23.09C56.8008 23.3767 56.7208 23.6233 56.5608 23.83C56.4074 24.03 56.1908 24.18 55.9108 24.28ZM53.2508 24.08H54.8308C55.2374 24.08 55.5474 24.0033 55.7608 23.85C55.9808 23.6967 56.0908 23.4733 56.0908 23.18C56.0908 22.8867 55.9808 22.6667 55.7608 22.52C55.5474 22.3733 55.2374 22.3 54.8308 22.3H53.2508V24.08ZM54.9208 26.44C55.3741 26.44 55.7141 26.3667 55.9408 26.22C56.1674 26.0733 56.2808 25.8433 56.2808 25.53C56.2808 25.2167 56.1774 24.9867 55.9708 24.84C55.7641 24.6867 55.4374 24.61 54.9908 24.61H53.2508V26.44H54.9208ZM63.2748 21.74V27H62.5948V26.04C62.4081 26.36 62.1514 26.61 61.8248 26.79C61.4981 26.9633 61.1248 27.05 60.7048 27.05C60.0114 27.05 59.4648 26.86 59.0648 26.48C58.6714 26.0933 58.4748 25.53 58.4748 24.79V21.74H59.1848V24.72C59.1848 25.2733 59.3214 25.6933 59.5948 25.98C59.8681 26.2667 60.2614 26.41 60.7748 26.41C61.3281 26.41 61.7648 26.2433 62.0848 25.91C62.4048 25.57 62.5648 25.1 62.5648 24.5V21.74H63.2748ZM67.4952 27.05C66.9752 27.05 66.5085 26.9367 66.0952 26.71C65.6885 26.4833 65.3685 26.1667 65.1352 25.76C64.9018 25.3467 64.7852 24.8833 64.7852 24.37C64.7852 23.8567 64.9018 23.3967 65.1352 22.99C65.3685 22.5833 65.6885 22.2667 66.0952 22.04C66.5085 21.8133 66.9752 21.7 67.4952 21.7C67.9485 21.7 68.3518 21.79 68.7052 21.97C69.0652 22.1433 69.3485 22.4 69.5552 22.74L69.0252 23.1C68.8518 22.84 68.6318 22.6467 68.3652 22.52C68.0985 22.3867 67.8085 22.32 67.4952 22.32C67.1152 22.32 66.7718 22.4067 66.4652 22.58C66.1652 22.7467 65.9285 22.9867 65.7552 23.3C65.5885 23.6133 65.5052 23.97 65.5052 24.37C65.5052 24.7767 65.5885 25.1367 65.7552 25.45C65.9285 25.7567 66.1652 25.9967 66.4652 26.17C66.7718 26.3367 67.1152 26.42 67.4952 26.42C67.8085 26.42 68.0985 26.3567 68.3652 26.23C68.6318 26.1033 68.8518 25.91 69.0252 25.65L69.5552 26.01C69.3485 26.35 69.0652 26.61 68.7052 26.79C68.3452 26.9633 67.9418 27.05 67.4952 27.05ZM78.2671 21.74V27H77.5571V22.37H74.2571V27H73.5471V21.74H78.2671ZM82.7054 21.7C83.2187 21.7 83.6754 21.8133 84.0754 22.04C84.4754 22.2667 84.7854 22.5833 85.0054 22.99C85.2321 23.3967 85.3454 23.86 85.3454 24.38C85.3454 24.9 85.2354 25.3633 85.0154 25.77C84.7954 26.17 84.4887 26.4833 84.0954 26.71C83.7087 26.9367 83.2654 27.05 82.7654 27.05C82.3254 27.05 81.9321 26.9633 81.5854 26.79C81.2454 26.61 80.9687 26.3533 80.7554 26.02V28.94H80.0454V24.39C80.0454 23.8633 80.1554 23.3967 80.3754 22.99C80.6021 22.5833 80.9154 22.2667 81.3154 22.04C81.7221 21.8133 82.1854 21.7 82.7054 21.7ZM82.6854 26.43C83.0587 26.43 83.3954 26.3433 83.6954 26.17C83.9954 25.9967 84.2287 25.7533 84.3954 25.44C84.5621 25.1267 84.6454 24.7733 84.6454 24.38C84.6454 23.9867 84.5621 23.6333 84.3954 23.32C84.2287 23.0067 83.9954 22.7633 83.6954 22.59C83.3954 22.41 83.0587 22.32 82.6854 22.32C82.3121 22.32 81.9754 22.4067 81.6754 22.58C81.3821 22.7533 81.1521 22.9967 80.9854 23.31C80.8254 23.6167 80.7454 23.97 80.7454 24.37C80.7454 24.77 80.8254 25.1267 80.9854 25.44C81.1521 25.7533 81.3821 25.9967 81.6754 26.17C81.9754 26.3433 82.3121 26.43 82.6854 26.43ZM89.0472 27.05C88.5405 27.05 88.0839 26.9367 87.6772 26.71C87.2705 26.4767 86.9505 26.1567 86.7172 25.75C86.4839 25.3433 86.3672 24.8833 86.3672 24.37C86.3672 23.8567 86.4839 23.3967 86.7172 22.99C86.9505 22.5833 87.2705 22.2667 87.6772 22.04C88.0839 21.8133 88.5405 21.7 89.0472 21.7C89.5539 21.7 90.0105 21.8133 90.4172 22.04C90.8239 22.2667 91.1405 22.5833 91.3672 22.99C91.6005 23.3967 91.7172 23.8567 91.7172 24.37C91.7172 24.8833 91.6005 25.3433 91.3672 25.75C91.1405 26.1567 90.8239 26.4767 90.4172 26.71C90.0105 26.9367 89.5539 27.05 89.0472 27.05ZM89.0472 26.42C89.4205 26.42 89.7539 26.3367 90.0472 26.17C90.3472 25.9967 90.5805 25.7533 90.7472 25.44C90.9139 25.1267 90.9972 24.77 90.9972 24.37C90.9972 23.97 90.9139 23.6133 90.7472 23.3C90.5805 22.9867 90.3472 22.7467 90.0472 22.58C89.7539 22.4067 89.4205 22.32 89.0472 22.32C88.6739 22.32 88.3372 22.4067 88.0372 22.58C87.7439 22.7467 87.5105 22.9867 87.3372 23.3C87.1705 23.6133 87.0872 23.97 87.0872 24.37C87.0872 24.77 87.1705 25.1267 87.3372 25.44C87.5105 25.7533 87.7439 25.9967 88.0372 26.17C88.3372 26.3367 88.6739 26.42 89.0472 26.42ZM95.1446 24.66H93.9446V27H93.2346V21.74H93.9446V24.05H95.1546L97.0046 21.74H97.7746L95.7046 24.29L97.9246 27H97.0846L95.1446 24.66ZM103.64 21.74V27H102.96V25.96C102.746 26.3133 102.463 26.5833 102.11 26.77C101.763 26.9567 101.37 27.05 100.93 27.05C100.436 27.05 99.9896 26.9367 99.5896 26.71C99.1896 26.4833 98.8763 26.1667 98.6496 25.76C98.4229 25.3533 98.3096 24.89 98.3096 24.37C98.3096 23.85 98.4229 23.3867 98.6496 22.98C98.8763 22.5733 99.1896 22.26 99.5896 22.04C99.9896 21.8133 100.436 21.7 100.93 21.7C101.356 21.7 101.74 21.79 102.08 21.97C102.426 22.1433 102.71 22.4 102.93 22.74V21.74H103.64ZM100.99 26.42C101.356 26.42 101.686 26.3367 101.98 26.17C102.28 25.9967 102.513 25.7533 102.68 25.44C102.853 25.1267 102.94 24.77 102.94 24.37C102.94 23.97 102.853 23.6133 102.68 23.3C102.513 22.9867 102.28 22.7467 101.98 22.58C101.686 22.4067 101.356 22.32 100.99 22.32C100.616 22.32 100.28 22.4067 99.9796 22.58C99.6863 22.7467 99.4529 22.9867 99.2796 23.3C99.1129 23.6133 99.0296 23.97 99.0296 24.37C99.0296 24.77 99.1129 25.1267 99.2796 25.44C99.4529 25.7533 99.6863 25.9967 99.9796 26.17C100.28 26.3367 100.616 26.42 100.99 26.42ZM112.197 21.7C112.857 21.7 113.374 21.89 113.747 22.27C114.127 22.65 114.317 23.21 114.317 23.95V27H113.607V24.02C113.607 23.4733 113.474 23.0567 113.207 22.77C112.947 22.4833 112.577 22.34 112.097 22.34C111.55 22.34 111.12 22.51 110.807 22.85C110.494 23.1833 110.337 23.6467 110.337 24.24V27H109.627V24.02C109.627 23.4733 109.494 23.0567 109.227 22.77C108.967 22.4833 108.594 22.34 108.107 22.34C107.567 22.34 107.137 22.51 106.817 22.85C106.504 23.1833 106.347 23.6467 106.347 24.24V27H105.637V21.74H106.317V22.7C106.504 22.38 106.764 22.1333 107.097 21.96C107.43 21.7867 107.814 21.7 108.247 21.7C108.687 21.7 109.067 21.7933 109.387 21.98C109.714 22.1667 109.957 22.4433 110.117 22.81C110.31 22.4633 110.587 22.1933 110.947 22C111.314 21.8 111.73 21.7 112.197 21.7ZM120.954 21.74V27H120.274V25.96C120.061 26.3133 119.777 26.5833 119.424 26.77C119.077 26.9567 118.684 27.05 118.244 27.05C117.751 27.05 117.304 26.9367 116.904 26.71C116.504 26.4833 116.191 26.1667 115.964 25.76C115.737 25.3533 115.624 24.89 115.624 24.37C115.624 23.85 115.737 23.3867 115.964 22.98C116.191 22.5733 116.504 22.26 116.904 22.04C117.304 21.8133 117.751 21.7 118.244 21.7C118.671 21.7 119.054 21.79 119.394 21.97C119.741 22.1433 120.024 22.4 120.244 22.74V21.74H120.954ZM118.304 26.42C118.671 26.42 119.001 26.3367 119.294 26.17C119.594 25.9967 119.827 25.7533 119.994 25.44C120.167 25.1267 120.254 24.77 120.254 24.37C120.254 23.97 120.167 23.6133 119.994 23.3C119.827 22.9867 119.594 22.7467 119.294 22.58C119.001 22.4067 118.671 22.32 118.304 22.32C117.931 22.32 117.594 22.4067 117.294 22.58C117.001 22.7467 116.767 22.9867 116.594 23.3C116.427 23.6133 116.344 23.97 116.344 24.37C116.344 24.77 116.427 25.1267 116.594 25.44C116.767 25.7533 117.001 25.9967 117.294 26.17C117.594 26.3367 117.931 26.42 118.304 26.42Z" fill="white"/>
<circle cx="14" cy="14" r="14" fill="#0500FF"/>
<path d="M7.66 7H14.02C15.54 7 16.88 7.29333 18.04 7.88C19.2133 8.45333 20.12 9.26667 20.76 10.32C21.4133 11.3733 21.74 12.6 21.74 14C21.74 15.4 21.4133 16.6267 20.76 17.68C20.12 18.7333 19.2133 19.5533 18.04 20.14C16.88 20.7133 15.54 21 14.02 21H7.66V7ZM13.86 18.34C15.26 18.34 16.3733 17.9533 17.2 17.18C18.04 16.3933 18.46 15.3333 18.46 14C18.46 12.6667 18.04 11.6133 17.2 10.84C16.3733 10.0533 15.26 9.66 13.86 9.66H10.9V18.34H13.86Z" fill="white"/>
</svg>
