<svg width="263" height="64" viewBox="0 0 263 64" fill="none" xmlns="http://www.w3.org/2000/svg">
<path d="M89.42 8H97.97C100.19 8 102.15 8.45 103.85 9.35C105.55 10.23 106.87 11.47 107.81 13.07C108.75 14.65 109.22 16.46 109.22 18.5C109.22 20.54 108.75 22.36 107.81 23.96C106.87 25.54 105.55 26.78 103.85 27.68C102.15 28.56 100.19 29 97.97 29H89.42V8ZM97.85 27.08C99.69 27.08 101.3 26.72 102.68 26C104.06 25.26 105.13 24.25 105.89 22.97C106.65 21.67 107.03 20.18 107.03 18.5C107.03 16.82 106.65 15.34 105.89 14.06C105.13 12.76 104.06 11.75 102.68 11.03C101.3 10.29 99.69 9.92 97.85 9.92H91.64V27.08H97.85ZM115.795 16.31C116.295 15.25 117.035 14.45 118.015 13.91C119.015 13.37 120.245 13.1 121.705 13.1V15.17L121.195 15.14C119.535 15.14 118.235 15.65 117.295 16.67C116.355 17.69 115.885 19.12 115.885 20.96V29H113.755V13.22H115.795V16.31ZM125.562 13.22H127.692V29H125.562V13.22ZM126.642 9.77C126.202 9.77 125.832 9.62 125.532 9.32C125.232 9.02 125.082 8.66 125.082 8.24C125.082 7.84 125.232 7.49 125.532 7.19C125.832 6.89 126.202 6.74 126.642 6.74C127.082 6.74 127.452 6.89 127.752 7.19C128.052 7.47 128.202 7.81 128.202 8.21C128.202 8.65 128.052 9.02 127.752 9.32C127.452 9.62 127.082 9.77 126.642 9.77ZM146.878 13.22L139.858 29H137.668L130.678 13.22H132.898L138.808 26.66L144.778 13.22H146.878ZM156.189 27.26C157.169 27.26 158.069 27.09 158.889 26.75C159.729 26.39 160.439 25.87 161.019 25.19L162.219 26.57C161.519 27.41 160.649 28.05 159.609 28.49C158.569 28.93 157.419 29.15 156.159 29.15C154.539 29.15 153.099 28.81 151.839 28.13C150.579 27.43 149.599 26.47 148.899 25.25C148.199 24.03 147.849 22.65 147.849 21.11C147.849 19.57 148.179 18.19 148.839 16.97C149.519 15.75 150.449 14.8 151.629 14.12C152.809 13.44 154.149 13.1 155.649 13.1C157.049 13.1 158.309 13.42 159.429 14.06C160.569 14.7 161.469 15.59 162.129 16.73C162.809 17.87 163.169 19.17 163.209 20.63L150.249 23.15C150.649 24.43 151.369 25.44 152.409 26.18C153.469 26.9 154.729 27.26 156.189 27.26ZM155.649 14.93C154.549 14.93 153.559 15.19 152.679 15.71C151.819 16.21 151.139 16.92 150.639 17.84C150.159 18.74 149.919 19.78 149.919 20.96C149.919 21.26 149.929 21.48 149.949 21.62L161.079 19.46C160.839 18.14 160.229 17.06 159.249 16.22C158.269 15.36 157.069 14.93 155.649 14.93ZM182.994 26.6C182.134 27.42 180.984 28.06 179.544 28.52C178.124 28.96 176.544 29.18 174.804 29.18C172.964 29.18 171.394 28.93 170.094 28.43C168.814 27.93 167.844 27.24 167.184 26.36C166.544 25.48 166.224 24.47 166.224 23.33C166.224 22.07 166.594 21 167.334 20.12C168.094 19.24 169.084 18.63 170.304 18.29C169.304 17.91 168.524 17.31 167.964 16.49C167.404 15.65 167.124 14.67 167.124 13.55C167.124 12.49 167.424 11.53 168.024 10.67C168.644 9.79 169.564 9.1 170.784 8.6C172.024 8.08 173.514 7.82 175.254 7.82C176.534 7.82 177.774 7.97 178.974 8.27C180.194 8.55 181.234 8.96 182.094 9.5L181.404 11.27C179.564 10.23 177.544 9.71 175.344 9.71C173.404 9.71 171.914 10.08 170.874 10.82C169.854 11.56 169.344 12.52 169.344 13.7C169.344 14.88 169.754 15.79 170.574 16.43C171.414 17.07 172.594 17.39 174.114 17.39H179.334V19.31H174.024C172.304 19.31 170.944 19.64 169.944 20.3C168.944 20.94 168.444 21.9 168.444 23.18C168.444 24.44 168.984 25.44 170.064 26.18C171.164 26.92 172.774 27.29 174.894 27.29C176.374 27.29 177.754 27.08 179.034 26.66C180.314 26.24 181.354 25.66 182.154 24.92L182.994 26.6ZM196.198 29L191.188 22.4L186.148 29H183.748L189.988 20.9L184.048 13.22H186.448L191.188 19.4L195.928 13.22H198.268L192.328 20.9L198.628 29H196.198ZM209.943 28.04C209.543 28.4 209.053 28.68 208.473 28.88C207.893 29.06 207.283 29.15 206.643 29.15C205.163 29.15 204.023 28.75 203.223 27.95C202.423 27.15 202.023 26.02 202.023 24.56V9.77H204.153V13.22H208.923V15.02H204.153V24.44C204.153 25.38 204.383 26.1 204.843 26.6C205.303 27.08 205.973 27.32 206.853 27.32C207.813 27.32 208.593 27.05 209.193 26.51L209.943 28.04ZM215.844 16.31C216.344 15.25 217.084 14.45 218.064 13.91C219.064 13.37 220.294 13.1 221.754 13.1V15.17L221.244 15.14C219.584 15.14 218.284 15.65 217.344 16.67C216.404 17.69 215.934 19.12 215.934 20.96V29H213.804V13.22H215.844V16.31ZM225.611 13.22H227.741V29H225.611V13.22ZM226.691 9.77C226.251 9.77 225.881 9.62 225.581 9.32C225.281 9.02 225.131 8.66 225.131 8.24C225.131 7.84 225.281 7.49 225.581 7.19C225.881 6.89 226.251 6.74 226.691 6.74C227.131 6.74 227.501 6.89 227.801 7.19C228.101 7.47 228.251 7.81 228.251 8.21C228.251 8.65 228.101 9.02 227.801 9.32C227.501 9.62 227.131 9.77 226.691 9.77ZM253.347 13.1C255.327 13.1 256.877 13.67 257.997 14.81C259.137 15.95 259.707 17.63 259.707 19.85V29H257.577V20.06C257.577 18.42 257.177 17.17 256.377 16.31C255.597 15.45 254.487 15.02 253.047 15.02C251.407 15.02 250.117 15.53 249.177 16.55C248.237 17.55 247.767 18.94 247.767 20.72V29H245.637V20.06C245.637 18.42 245.237 17.17 244.437 16.31C243.657 15.45 242.537 15.02 241.077 15.02C239.457 15.02 238.167 15.53 237.207 16.55C236.267 17.55 235.797 18.94 235.797 20.72V29H233.667V13.22H235.707V16.1C236.267 15.14 237.047 14.4 238.047 13.88C239.047 13.36 240.197 13.1 241.497 13.1C242.817 13.1 243.957 13.38 244.917 13.94C245.897 14.5 246.627 15.33 247.107 16.43C247.687 15.39 248.517 14.58 249.597 14C250.697 13.4 251.947 13.1 253.347 13.1Z" fill="black"/>
<path d="M92.36 55.09C91.32 55.09 90.38 54.86 89.54 54.4C88.71 53.94 88.055 53.305 87.575 52.495C87.105 51.675 86.87 50.76 86.87 49.75C86.87 48.74 87.105 47.83 87.575 47.02C88.055 46.2 88.715 45.56 89.555 45.1C90.395 44.64 91.335 44.41 92.375 44.41C93.155 44.41 93.875 44.54 94.535 44.8C95.195 45.06 95.755 45.44 96.215 45.94L95.51 46.645C94.69 45.815 93.655 45.4 92.405 45.4C91.575 45.4 90.82 45.59 90.14 45.97C89.46 46.35 88.925 46.87 88.535 47.53C88.155 48.19 87.965 48.93 87.965 49.75C87.965 50.57 88.155 51.31 88.535 51.97C88.925 52.63 89.46 53.15 90.14 53.53C90.82 53.91 91.575 54.1 92.405 54.1C93.665 54.1 94.7 53.68 95.51 52.84L96.215 53.545C95.755 54.045 95.19 54.43 94.52 54.7C93.86 54.96 93.14 55.09 92.36 55.09ZM101.246 54.13C101.736 54.13 102.186 54.045 102.596 53.875C103.016 53.695 103.371 53.435 103.661 53.095L104.261 53.785C103.911 54.205 103.476 54.525 102.956 54.745C102.436 54.965 101.861 55.075 101.231 55.075C100.421 55.075 99.7007 54.905 99.0707 54.565C98.4407 54.215 97.9507 53.735 97.6007 53.125C97.2507 52.515 97.0757 51.825 97.0757 51.055C97.0757 50.285 97.2407 49.595 97.5707 48.985C97.9107 48.375 98.3757 47.9 98.9657 47.56C99.5557 47.22 100.226 47.05 100.976 47.05C101.676 47.05 102.306 47.21 102.866 47.53C103.436 47.85 103.886 48.295 104.216 48.865C104.556 49.435 104.736 50.085 104.756 50.815L98.2757 52.075C98.4757 52.715 98.8357 53.22 99.3557 53.59C99.8857 53.95 100.516 54.13 101.246 54.13ZM100.976 47.965C100.426 47.965 99.9307 48.095 99.4907 48.355C99.0607 48.605 98.7207 48.96 98.4707 49.42C98.2307 49.87 98.1107 50.39 98.1107 50.98C98.1107 51.13 98.1157 51.24 98.1257 51.31L103.691 50.23C103.571 49.57 103.266 49.03 102.776 48.61C102.286 48.18 101.686 47.965 100.976 47.965ZM110.583 47.05C111.353 47.05 112.038 47.22 112.638 47.56C113.238 47.9 113.703 48.375 114.033 48.985C114.373 49.595 114.543 50.29 114.543 51.07C114.543 51.85 114.378 52.545 114.048 53.155C113.718 53.755 113.258 54.225 112.668 54.565C112.088 54.905 111.423 55.075 110.673 55.075C110.013 55.075 109.423 54.945 108.903 54.685C108.393 54.415 107.978 54.03 107.658 53.53V57.91H106.593V51.085C106.593 50.295 106.758 49.595 107.088 48.985C107.428 48.375 107.898 47.9 108.498 47.56C109.108 47.22 109.803 47.05 110.583 47.05ZM110.553 54.145C111.113 54.145 111.618 54.015 112.068 53.755C112.518 53.495 112.868 53.13 113.118 52.66C113.368 52.19 113.493 51.66 113.493 51.07C113.493 50.48 113.368 49.95 113.118 49.48C112.868 49.01 112.518 48.645 112.068 48.385C111.618 48.115 111.113 47.98 110.553 47.98C109.993 47.98 109.488 48.11 109.038 48.37C108.598 48.63 108.253 48.995 108.003 49.465C107.763 49.925 107.643 50.455 107.643 51.055C107.643 51.655 107.763 52.19 108.003 52.66C108.253 53.13 108.598 53.495 109.038 53.755C109.488 54.015 109.993 54.145 110.553 54.145ZM121.866 50.92C122.936 51.17 123.471 51.815 123.471 52.855C123.471 53.545 123.216 54.075 122.706 54.445C122.196 54.815 121.436 55 120.426 55H116.841V47.11H120.321C121.221 47.11 121.926 47.285 122.436 47.635C122.946 47.985 123.201 48.485 123.201 49.135C123.201 49.565 123.081 49.935 122.841 50.245C122.611 50.545 122.286 50.77 121.866 50.92ZM117.876 50.62H120.246C120.856 50.62 121.321 50.505 121.641 50.275C121.971 50.045 122.136 49.71 122.136 49.27C122.136 48.83 121.971 48.5 121.641 48.28C121.321 48.06 120.856 47.95 120.246 47.95H117.876V50.62ZM120.381 54.16C121.061 54.16 121.571 54.05 121.911 53.83C122.251 53.61 122.421 53.265 122.421 52.795C122.421 52.325 122.266 51.98 121.956 51.76C121.646 51.53 121.156 51.415 120.486 51.415H117.876V54.16H120.381ZM132.912 47.11V55H131.892V53.56C131.612 54.04 131.227 54.415 130.737 54.685C130.247 54.945 129.687 55.075 129.057 55.075C128.017 55.075 127.197 54.79 126.597 54.22C126.007 53.64 125.712 52.795 125.712 51.685V47.11H126.777V51.58C126.777 52.41 126.982 53.04 127.392 53.47C127.802 53.9 128.392 54.115 129.162 54.115C129.992 54.115 130.647 53.865 131.127 53.365C131.607 52.855 131.847 52.15 131.847 51.25V47.11H132.912ZM139.243 55.075C138.463 55.075 137.763 54.905 137.143 54.565C136.533 54.225 136.053 53.75 135.703 53.14C135.353 52.52 135.178 51.825 135.178 51.055C135.178 50.285 135.353 49.595 135.703 48.985C136.053 48.375 136.533 47.9 137.143 47.56C137.763 47.22 138.463 47.05 139.243 47.05C139.923 47.05 140.528 47.185 141.058 47.455C141.598 47.715 142.023 48.1 142.333 48.61L141.538 49.15C141.278 48.76 140.948 48.47 140.548 48.28C140.148 48.08 139.713 47.98 139.243 47.98C138.673 47.98 138.158 48.11 137.698 48.37C137.248 48.62 136.893 48.98 136.633 49.45C136.383 49.92 136.258 50.455 136.258 51.055C136.258 51.665 136.383 52.205 136.633 52.675C136.893 53.135 137.248 53.495 137.698 53.755C138.158 54.005 138.673 54.13 139.243 54.13C139.713 54.13 140.148 54.035 140.548 53.845C140.948 53.655 141.278 53.365 141.538 52.975L142.333 53.515C142.023 54.025 141.598 54.415 141.058 54.685C140.518 54.945 139.913 55.075 139.243 55.075ZM155.401 47.11V55H154.336V48.055H149.386V55H148.321V47.11H155.401ZM162.058 47.05C162.828 47.05 163.513 47.22 164.113 47.56C164.713 47.9 165.178 48.375 165.508 48.985C165.848 49.595 166.018 50.29 166.018 51.07C166.018 51.85 165.853 52.545 165.523 53.155C165.193 53.755 164.733 54.225 164.143 54.565C163.563 54.905 162.898 55.075 162.148 55.075C161.488 55.075 160.898 54.945 160.378 54.685C159.868 54.415 159.453 54.03 159.133 53.53V57.91H158.068V51.085C158.068 50.295 158.233 49.595 158.563 48.985C158.903 48.375 159.373 47.9 159.973 47.56C160.583 47.22 161.278 47.05 162.058 47.05ZM162.028 54.145C162.588 54.145 163.093 54.015 163.543 53.755C163.993 53.495 164.343 53.13 164.593 52.66C164.843 52.19 164.968 51.66 164.968 51.07C164.968 50.48 164.843 49.95 164.593 49.48C164.343 49.01 163.993 48.645 163.543 48.385C163.093 48.115 162.588 47.98 162.028 47.98C161.468 47.98 160.963 48.11 160.513 48.37C160.073 48.63 159.728 48.995 159.478 49.465C159.238 49.925 159.118 50.455 159.118 51.055C159.118 51.655 159.238 52.19 159.478 52.66C159.728 53.13 160.073 53.495 160.513 53.755C160.963 54.015 161.468 54.145 162.028 54.145ZM171.571 55.075C170.811 55.075 170.126 54.905 169.516 54.565C168.906 54.215 168.426 53.735 168.076 53.125C167.726 52.515 167.551 51.825 167.551 51.055C167.551 50.285 167.726 49.595 168.076 48.985C168.426 48.375 168.906 47.9 169.516 47.56C170.126 47.22 170.811 47.05 171.571 47.05C172.331 47.05 173.016 47.22 173.626 47.56C174.236 47.9 174.711 48.375 175.051 48.985C175.401 49.595 175.576 50.285 175.576 51.055C175.576 51.825 175.401 52.515 175.051 53.125C174.711 53.735 174.236 54.215 173.626 54.565C173.016 54.905 172.331 55.075 171.571 55.075ZM171.571 54.13C172.131 54.13 172.631 54.005 173.071 53.755C173.521 53.495 173.871 53.13 174.121 52.66C174.371 52.19 174.496 51.655 174.496 51.055C174.496 50.455 174.371 49.92 174.121 49.45C173.871 48.98 173.521 48.62 173.071 48.37C172.631 48.11 172.131 47.98 171.571 47.98C171.011 47.98 170.506 48.11 170.056 48.37C169.616 48.62 169.266 48.98 169.006 49.45C168.756 49.92 168.631 50.455 168.631 51.055C168.631 51.655 168.756 52.19 169.006 52.66C169.266 53.13 169.616 53.495 170.056 53.755C170.506 54.005 171.011 54.13 171.571 54.13ZM180.717 51.49H178.917V55H177.852V47.11H178.917V50.575H180.732L183.507 47.11H184.662L181.557 50.935L184.887 55H183.627L180.717 51.49ZM193.459 47.11V55H192.439V53.44C192.119 53.97 191.694 54.375 191.164 54.655C190.644 54.935 190.054 55.075 189.394 55.075C188.654 55.075 187.984 54.905 187.384 54.565C186.784 54.225 186.314 53.75 185.974 53.14C185.634 52.53 185.464 51.835 185.464 51.055C185.464 50.275 185.634 49.58 185.974 48.97C186.314 48.36 186.784 47.89 187.384 47.56C187.984 47.22 188.654 47.05 189.394 47.05C190.034 47.05 190.609 47.185 191.119 47.455C191.639 47.715 192.064 48.1 192.394 48.61V47.11H193.459ZM189.484 54.13C190.034 54.13 190.529 54.005 190.969 53.755C191.419 53.495 191.769 53.13 192.019 52.66C192.279 52.19 192.409 51.655 192.409 51.055C192.409 50.455 192.279 49.92 192.019 49.45C191.769 48.98 191.419 48.62 190.969 48.37C190.529 48.11 190.034 47.98 189.484 47.98C188.924 47.98 188.419 48.11 187.969 48.37C187.529 48.62 187.179 48.98 186.919 49.45C186.669 49.92 186.544 50.455 186.544 51.055C186.544 51.655 186.669 52.19 186.919 52.66C187.179 53.13 187.529 53.495 187.969 53.755C188.419 54.005 188.924 54.13 189.484 54.13ZM206.295 47.05C207.285 47.05 208.06 47.335 208.62 47.905C209.19 48.475 209.475 49.315 209.475 50.425V55H208.41V50.53C208.41 49.71 208.21 49.085 207.81 48.655C207.42 48.225 206.865 48.01 206.145 48.01C205.325 48.01 204.68 48.265 204.21 48.775C203.74 49.275 203.505 49.97 203.505 50.86V55H202.44V50.53C202.44 49.71 202.24 49.085 201.84 48.655C201.45 48.225 200.89 48.01 200.16 48.01C199.35 48.01 198.705 48.265 198.225 48.775C197.755 49.275 197.52 49.97 197.52 50.86V55H196.455V47.11H197.475V48.55C197.755 48.07 198.145 47.7 198.645 47.44C199.145 47.18 199.72 47.05 200.37 47.05C201.03 47.05 201.6 47.19 202.08 47.47C202.57 47.75 202.935 48.165 203.175 48.715C203.465 48.195 203.88 47.79 204.42 47.5C204.97 47.2 205.595 47.05 206.295 47.05ZM219.431 47.11V55H218.411V53.44C218.091 53.97 217.666 54.375 217.136 54.655C216.616 54.935 216.026 55.075 215.366 55.075C214.626 55.075 213.956 54.905 213.356 54.565C212.756 54.225 212.286 53.75 211.946 53.14C211.606 52.53 211.436 51.835 211.436 51.055C211.436 50.275 211.606 49.58 211.946 48.97C212.286 48.36 212.756 47.89 213.356 47.56C213.956 47.22 214.626 47.05 215.366 47.05C216.006 47.05 216.581 47.185 217.091 47.455C217.611 47.715 218.036 48.1 218.366 48.61V47.11H219.431ZM215.456 54.13C216.006 54.13 216.501 54.005 216.941 53.755C217.391 53.495 217.741 53.13 217.991 52.66C218.251 52.19 218.381 51.655 218.381 51.055C218.381 50.455 218.251 49.92 217.991 49.45C217.741 48.98 217.391 48.62 216.941 48.37C216.501 48.11 216.006 47.98 215.456 47.98C214.896 47.98 214.391 48.11 213.941 48.37C213.501 48.62 213.151 48.98 212.891 49.45C212.641 49.92 212.516 50.455 212.516 51.055C212.516 51.655 212.641 52.19 212.891 52.66C213.151 53.13 213.501 53.495 213.941 53.755C214.391 54.005 214.896 54.13 215.456 54.13Z" fill="black"/>
<circle cx="32" cy="32" r="32" fill="#0500FF"/>
<path d="M21.49 22H31.03C33.31 22 35.32 22.44 37.06 23.32C38.82 24.18 40.18 25.4 41.14 26.98C42.12 28.56 42.61 30.4 42.61 32.5C42.61 34.6 42.12 36.44 41.14 38.02C40.18 39.6 38.82 40.83 37.06 41.71C35.32 42.57 33.31 43 31.03 43H21.49V22ZM30.79 39.01C32.89 39.01 34.56 38.43 35.8 37.27C37.06 36.09 37.69 34.5 37.69 32.5C37.69 30.5 37.06 28.92 35.8 27.76C34.56 26.58 32.89 25.99 30.79 25.99H26.35V39.01H30.79Z" fill="white"/>
</svg>
